<?xml version="1.0" encoding="iso-8859-1"?>
<!-- Generator: Adobe Illustrator 19.0.0, SVG Export Plug-In . SVG Version: 6.00 Build 0)  -->
<svg version="1.1" id="Capa_1" xmlns="http://www.w3.org/2000/svg" xmlns:xlink="http://www.w3.org/1999/xlink" x="0px" y="0px"
	 viewBox="0 0 512 512" style="enable-background:new 0 0 512 512;" xml:space="preserve">
<g>
	<path style="fill:#88AD72;" d="M93.101,272.898c-4.661,0-8.44,3.778-8.44,8.44s3.779,8.44,8.44,8.44h39.385v-16.879H93.101z"/>
	<path style="fill:#88AD72;" d="M110.312,236.808c-3.773-2.742-9.051-1.903-11.788,1.867c-2.74,3.771-1.904,9.048,1.867,11.788
		l22.505,16.351l9.922-13.655L110.312,236.808z"/>
	<path style="fill:#88AD72;" d="M122.896,295.861l-22.505,16.35c-3.771,2.74-4.607,8.018-1.868,11.788
		c2.739,3.772,8.018,4.609,11.788,1.867l22.505-16.35L122.896,295.861z"/>
</g>
<g>
	<path style="fill:#619243;" d="M418.899,272.898h-39.385v16.879h39.385c4.661,0,8.44-3.778,8.44-8.44
		S423.56,272.898,418.899,272.898z"/>
	<path style="fill:#619243;" d="M411.61,312.21l-22.505-16.35l-9.92,13.655l22.505,16.35c3.771,2.743,9.049,1.904,11.788-1.867
		C416.217,320.227,415.381,314.95,411.61,312.21z"/>
	<path style="fill:#619243;" d="M413.477,238.676c-2.738-3.772-8.015-4.608-11.788-1.867l-22.505,16.351l9.922,13.655l22.505-16.351
		C415.381,247.725,416.217,242.446,413.477,238.676z"/>
	<path style="fill:#619243;" d="M361.038,234.495c-2.57-21.72-12.027-41.338-26.268-56.518L256,144.219v240.439
		c18.119,0,33.728-10.713,40.866-26.144l76.924-33.907c16.621-7.327,28.231-23.936,28.231-43.268
		C402.02,257.365,384.17,237.573,361.038,234.495z"/>
</g>
<path style="fill:#88AD72;" d="M287.418,358.513l59.14-33.907c12.779-7.327,21.704-23.936,21.704-43.268
	c0-23.974-13.724-43.765-31.508-46.843c-1.976-21.72-9.246-41.338-20.195-56.518L256,144.219l-78.769,33.758
	c-14.241,15.18-23.698,34.798-26.268,56.518c-23.132,3.078-40.983,22.87-40.983,46.843c0,19.331,11.608,35.941,28.231,43.268
	l76.924,33.907c7.136,15.432,22.745,26.144,40.865,26.144C269.931,384.657,281.931,373.945,287.418,358.513z"/>
<path style="fill:#4B7A2F;" d="M256,318.338c-0.931,0-1.86-0.154-2.752-0.461c-5.695-1.964-34.419-12.65-40.646-30.169
	c-1.561-4.391,0.734-9.217,5.126-10.778c4.391-1.565,9.218,0.731,10.779,5.126c2.391,6.728,16.883,14.737,27.488,18.852
	c10.611-4.132,25.12-12.156,27.499-18.852c1.562-4.392,6.388-6.689,10.779-5.126c4.392,1.561,6.686,6.387,5.126,10.778
	c-6.227,17.517-34.951,28.204-40.646,30.169C257.86,318.184,256.931,318.338,256,318.338z"/>
<g>
	<path style="fill:#35611A;" d="M226.302,259.563c-3.675,0-6.801-2.348-7.959-5.626h-11.171c-4.661,0-8.44-3.778-8.44-8.44
		c0-4.662,3.779-8.44,8.44-8.44h19.13c4.661,0,8.44,3.778,8.44,8.44v5.626C234.741,255.785,230.963,259.563,226.302,259.563z"/>
	<path style="fill:#35611A;" d="M285.698,259.563c-4.661,0-8.44-3.778-8.44-8.44v-5.626c0-4.662,3.779-8.44,8.44-8.44h19.13
		c4.661,0,8.44,3.778,8.44,8.44c0,4.662-3.779,8.44-8.44,8.44h-11.171C292.499,257.214,289.373,259.563,285.698,259.563z"/>
</g>
<g>
	<path style="fill:#4B7A2F;" d="M237.555,220.178h-41.635c-4.661,0-8.44-3.778-8.44-8.44s3.779-8.44,8.44-8.44h41.635
		c4.661,0,8.44,3.778,8.44,8.44S242.215,220.178,237.555,220.178z"/>
	<path style="fill:#4B7A2F;" d="M316.081,220.178h-41.635c-4.661,0-8.44-3.778-8.44-8.44s3.779-8.44,8.44-8.44h41.635
		c4.661,0,8.44,3.778,8.44,8.44S320.742,220.178,316.081,220.178z"/>
</g>
<path style="fill:#F7F5F2;" d="M346.022,0c12.434,0,22.505,10.071,22.505,22.505s-10.071,22.505-22.505,22.505
	c-12.434,0-22.506-10.071-22.506-22.505S333.588,0,346.022,0z"/>
<polygon style="fill:#992A2A;" points="289.758,22.505 256,144.226 323.516,110.466 323.516,22.505 "/>
<path style="fill:#DF3333;" d="M271.923,22.505c-21.662,0-47.329,15.844-57.029,35.21l-26.41,52.751l101.275,33.76V22.505H271.923z"
	/>
<path style="fill:#F7E4E4;" d="M334.769,110.466h-33.758v67.519h33.758c18.646,0,33.758-15.124,33.758-33.758
	C368.527,125.581,353.415,110.466,334.769,110.466z"/>
<path style="fill:#F7F5F2;" d="M334.769,144.226c0-18.646-15.112-33.76-33.758-33.76h-123.78c-18.646,0-33.758,15.115-33.758,33.76
	c0,18.635,15.112,33.758,33.758,33.758h123.78C319.657,177.985,334.769,162.861,334.769,144.226z"/>
<path style="fill:#992A2A;" d="M372.958,463.426l-33.758-9.744l-24.404,31.82L376.968,512h33.758
	C401.075,493.612,388.241,477.219,372.958,463.426z"/>
<path style="fill:#DF3333;" d="M339.199,463.426v-9.744L256,429.667l-116.957,33.758c-15.283,13.794-28.117,30.187-37.769,48.575
	h275.693C367.317,493.612,354.483,477.219,339.199,463.426z"/>
<path style="fill:#F7E4E4;" d="M373.115,418.691h-33.758l0.059,45.011h33.758c12.43,0,22.447-10.077,22.447-22.507
	C395.622,428.766,385.545,418.691,373.115,418.691z"/>
<path style="fill:#F7F5F2;" d="M361.864,441.195c0-12.43-10.077-22.504-22.507-22.504h-200.04c-12.43,0-22.507,10.075-22.507,22.504
	s10.019,22.507,22.449,22.507h200.157C351.846,463.702,361.864,453.626,361.864,441.195z"/>
<g>
</g>
<g>
</g>
<g>
</g>
<g>
</g>
<g>
</g>
<g>
</g>
<g>
</g>
<g>
</g>
<g>
</g>
<g>
</g>
<g>
</g>
<g>
</g>
<g>
</g>
<g>
</g>
<g>
</g>
</svg>
