<svg height="512" viewBox="0 0 59 59" width="512" xmlns="http://www.w3.org/2000/svg"><g id="Page-1" fill="none" fill-rule="evenodd"><g id="004---Opening-Gift" fill-rule="nonzero" transform="translate(-1)"><path id="Shape" d="m51 30v27c-.0032948 1.1032019-.8967981 1.9967052-2 2h-32c-1.1032019-.0032948-1.9967052-.8967981-2-2v-24.41l.09-3.59h34.91c.5522847 0 1 .4477153 1 1z" fill="#e64c3c"/><path id="Shape" d="m23.09 29-8.09 8.09v-4.5l.09-3.59z" fill="#c03a2b"/><path id="Shape" d="m27.335 6.122-4.243-4.243c-.7447192-.74553884-1.8259939-1.04568412-2.8484471-.79068528-1.0224531.25499883-1.8361489 1.02774793-2.1435529 2.03568528l-2.036 6.7-6.237 6.24-6.703 2.036c-1.00793735.307404-1.78068645 1.1210998-2.03568528 2.1435529-.25499884 1.0224532.04514644 2.1037279.79068528 2.8484471l4.243 4.243 11.815-9.815z" fill="#f0c419"/><path id="Shape" d="m19.557 13.9c-.1488506-1.0726002-.6460146-2.0665768-1.415-2.829-1.9550837-1.93803365-5.1089727-1.9311274-7.05555.01545-1.9465774 1.9465773-1.95348365 5.1004663-.01545 7.05555.7624232.7689854 1.7563998 1.2661494 2.829 1.415l3.62-2.12z" fill="#f3d55b"/><path id="Rectangle-path" d="m29 29h8v30h-8z" fill="#f0c419"/><path id="Shape" d="m42 25c-.424813.0001993-.8033866-.2680233-.9440546-.6688708-.1406679-.4008474-.0127245-.8468203.3190546-1.1121292.206-.164 5.069-4.05 8.07-6.051 1.7889074-1.2896427 4.1346003-1.5133152 6.135-.585 1.5784315.8948601 2.515423 2.6050632 2.42 4.417 0 .5522847-.4477153 1-1 1s-1-.4477153-1-1c.0974659-1.0738588-.4339307-2.1074329-1.364-2.653-1.3490043-.581001-2.9057441-.3959928-4.081.485-2.93 1.953-7.881 5.909-7.93 5.949-.1774122.1418687-.3978397.2191065-.625.219z" fill="#955ba5"/><path id="Shape" d="m44 18c-.424813.0001993-.8033866-.2680233-.9440546-.6688708-.1406679-.4008474-.0127245-.8468203.3190546-1.1121292.206-.164 5.069-4.05 8.07-6.051 1.7889074-1.28964272 4.1346003-1.51331515 6.135-.585 1.5784315.8948601 2.515423 2.6050632 2.42 4.417 0 .5522847-.4477153 1-1 1s-1-.4477153-1-1c.0974659-1.0738588-.4339307-2.1074329-1.364-2.653-1.3490043-.581001-2.9057441-.3959928-4.081.485-2.93 1.953-7.881 5.909-7.93 5.949-.1774122.1418687-.3978397.2191065-.625.219z" fill="#955ba5"/><path id="Shape" d="m39 16c-.4177668-.0001733-.7914017-.2600298-.9369408-.6516259-.1455391-.391596-.0323087-.8323991.2839408-1.1053741.032-.028 3.231-2.785 6.028-5.024 2.158-1.726 3.216-3.8 2.7-5.282-.436-1.231-1.92-1.937-4.075-1.937-.5522847 0-1-.44771525-1-1s.4477153-1 1-1c3.056 0 5.228 1.194 5.958 3.275.817 2.331-.459 5.207-3.333 7.506-2.769 2.215-5.94 4.949-5.972 4.976-.1814977.1566622-.4132408.2429005-.653.243z" fill="#955ba5"/><g fill="#f0c419"><circle id="Oval" cx="39" cy="20" r="1"/><circle id="Oval" cx="34" cy="21" r="1"/><circle id="Oval" cx="53" cy="23" r="1"/><circle id="Oval" cx="54" cy="5" r="1"/><circle id="Oval" cx="37" cy="25" r="1"/></g><path id="Shape" d="m2.26362363 15.264h35.99999997c1.1045695 0 2 .8954305 2 2v7c0 .5522847-.4477152 1-1 1h-37.99999997c-.55228475 0-1-.4477153-1-1v-7c0-1.1045695.8954305-2 2-2z" fill="#e64c3c" transform="matrix(.707 -.707 .707 .707 -8.394 20.264)"/><path id="Rectangle-path" d="m15.264 15.264h10v10h-10z" fill="#f0c419" transform="matrix(.707 -.707 .707 .707 -8.394 20.264)"/></g></g></svg>